# xmcd
# 
# Track frame offsets:
#   150
#   17451
#   31969
#   45900
#   59750
#   78170
#   93115
#   107082
#   123187
#   142503
#   159804
#   174322
#   188253
#   202103
#   220523
#   235468
#   249435
#   265540
# 
# Disc length: 3798 seconds
# 
# Revision: 2
# Processed by: cddbd v1.5.2PL0 Copyright (c) Steve Scherf et al.
# Submitted via: Synapstar 1.0 
# 
DISCID=ce0ed412
DTITLE=Various Artist - 21003-10
DYEAR=2010
DGENRE=Country
TTITLE0=Luke Bryan - Someone Else Calling You Baby
TTITLE1=Thompson Square - Are You Gonna Kiss Me or Not
TTITLE2=Toby Keith - Trailerhood
TTITLE3=Chris Young - Voices
TTITLE4=The Band Perry - If I Die Young
TTITLE5=Laura Bell Bundy - Drop On By
TTITLE6=Matt Kennon - You Can Still Wear White
TTITLE7=Jayme Lynn Scott - Diggin In
TTITLE8=Mason Douglas - Anything Can Happen
TTITLE9=Luke Bryan - Someone Else Calling You Baby-vcl
TTITLE10=Thompson Square - Are You Gonna Kiss Me or Not-vcl
TTITLE11=Toby Keith - Trailerhood-vcl
TTITLE12=Chris Young - Voices-vcl
TTITLE13=The Band Perry - If I Die Young - Vcl
TTITLE14=Laura Bell Bundy - Drop On By - Vcl
TTITLE15=Matt Kennon - You Can Still Wear White - Vcl
TTITLE16=Jayme Lynn Scott - Diggin In - Vcl
TTITLE17=Mason Douglas - Anything Can Happen - Vcl
EXTD=MediaType: Karaoke CD+G Producer: Chartbuster
EXTT0=
EXTT1=
EXTT2=
EXTT3=
EXTT4=
EXTT5=
EXTT6=
EXTT7=
EXTT8=
EXTT9=
EXTT10=
EXTT11=
EXTT12=
EXTT13=
EXTT14=
EXTT15=
EXTT16=
EXTT17=
PLAYORDER=
